<?xml version="1.0" encoding="UTF-8"?>
<svg id="_圖層_1" data-name="圖層_1" xmlns="http://www.w3.org/2000/svg" version="1.1" viewBox="0 0 595.28 841.89">
  <!-- Generator: Adobe Illustrator 29.5.0, SVG Export Plug-In . SVG Version: 2.1.0 Build 137)  -->
  <path d="M304.12,460.01h6.36c9.26,0,17.26,3.28,24.01,9.83l.58.58,6.36,19.67-3.76,5.5-31.24,11.28v3.18l2.02,14.75-11.28,10.12v9.83l1.74,13.59c-1.35,6.94-4.05,13.5-8.1,19.67-2.89,4.24-5.79,8.78-8.68,13.59h6.07l82.44-5.79,7.23,1.74,21.69-3.47c16.97,5.02,33.65,9.07,50.04,12.15,16.97,3.28,33.65,9.74,50.04,19.38l8.68,19.67-1.45,1.74c-4.44,4.44-9.64,6.65-15.62,6.65h-15.91c-20.83-5.01-40.78-10.41-59.88-16.2-14.85-4.63-30.85-6.94-48.02-6.94-4.63,0-9.45.19-14.46.58-7.33-.58-14.37-.87-21.12-.87-26.03,0-50.52,3.95-73.47,11.86l-88.8,30.66h-.58c-14.46,0-27.77-3.47-39.92-10.41-12.15-6.94-25.07-10.41-38.76-10.41h-3.18v-6.94l20.25-10.41,6.07-7.81,24.88-6.07,6.07,1.74,95.74-17.07c4.24-5.59,6.94-11.76,8.1-18.51.77-4.05,1.16-8,1.16-11.86s-.29-7.81-.87-11.86l-9.26-28.64-24.3-7.52-5.5-7.52h-5.5v-5.21l-24.3-20.25,17.93-5.21,6.36-8.1h1.45c14.08,0,27.38-.96,39.92-2.89,12.34-1.92,24.2-5.88,35.58-11.86l1.45-.58,1.45.58c6.17,2.7,12.92,4.05,20.25,4.05ZM152.26,339.97l-.29,7.81c0,3.66.48,7.62,1.45,11.86l-.87,1.16c-3.47,4.44-5.21,9.16-5.21,14.17v21.69h-9.83l-24.59-12.44-13.31-21.4-4.34-2.02v-10.41c2.89-5.59,4.34-11.28,4.34-17.07,0-.96-.05-2.07-.14-3.33-.1-1.25-.19-2.6-.29-4.05s-.14-2.94-.14-4.48v-4.34c-.19-3.08-.29-6.17-.29-9.26l-7.23-16.78,5.21-.87-1.16-1.45c6.56,2.7,13.21,6.65,19.96,11.86,5.79,4.44,11.86,6.75,18.22,6.94l25.16-10.7,1.74-5.5c39.92-11.96,79.64-20.83,119.17-26.61s79.45-11.96,119.75-18.51c11.96,3.86,24.2,7.04,36.73,9.55,13.31,2.7,25.36,8.2,36.16,16.49,1.54,3.86,4.34,7.23,8.39,10.12,4.24,3.28,6.36,7.23,6.36,11.86,0,1.35-.19,3.09-.58,5.21-12.34,8.1-24.44,15.43-36.3,21.98-11.86,6.56-25.12,10.41-39.77,11.57l-38.76-9.83-4.92-18.8.87-1.16c2.31-3.28,3.47-7.42,3.47-12.44v-15.04c-1.74-1.16-3.57-1.74-5.5-1.74h-8.39c-26.61,5.02-52.55,12.25-77.81,21.69-25.65,9.83-53.03,16.68-82.15,20.54l-14.46-6.36-7.81-7.52h-5.21l-24.3,15.91v6.65c4.44,3.86,6.65,8.87,6.65,15.04ZM164.12,448.73c2.51-10.99,6.07-21.69,10.7-32.11,2.7-5.97,4.05-12.44,4.05-19.38,0-4.05-.39-8.2-1.16-12.44-1.93-3.66-2.89-7.71-2.89-12.15,0-2.12.19-4.15.58-6.07.39-1.92.58-3.33.58-4.19s-.05-1.78-.14-2.75c-.1-.96-.43-2.21-1.01-3.76-.58-1.54-1.45-2.99-2.6-4.34l-1.74-2.31,8.68-8.68h6.94l11.86,11.86c4.82,1.16,9.79,2.75,14.9,4.77s9.98,5.35,14.61,9.98l6.36,28.35-14.46,29.21c-7.33,3.86-14.66,6.75-21.98,8.68-7.33,1.93-14.08,4.05-20.25,6.36l-13.02,30.37v-21.4ZM169.91,193.61v-7.81l2.89-6.65h10.7c13.11,11.76,27.09,19.86,41.94,24.3,14.85,4.44,29.02,12.83,42.52,25.16l6.36,19.38-8.68,17.36-38.47,11.57v-10.99c-8.68-12.34-17.36-24.88-26.03-37.6-8.68-12.73-18.7-24.01-30.08-33.84l-1.16-.87ZM264.2,352.99c0-3.86.58-8.77,1.74-14.75h5.79l26.61,18.51,8.97,23.72h12.73l21.12-7.81c11.18,2.89,21.98,5.64,32.4,8.24,10.41,2.6,20.15,7.09,29.21,13.45l1.16.87,2.31,13.31c-8.87,5.21-17.64,9.16-26.32,11.86-13.11,3.86-27.19,5.79-42.23,5.79-4.44,0-9.06-.19-13.88-.58l-40.21-22.27c-5.4-9.44-10.32-18.99-14.75-28.64-3.09-6.75-4.63-13.98-4.63-21.69Z" fill="#231815"/>
</svg>