<?xml version="1.0" encoding="UTF-8"?>
<svg id="_圖層_1" data-name="圖層_1" xmlns="http://www.w3.org/2000/svg" version="1.1" viewBox="0 0 595.28 841.89">
  <!-- Generator: Adobe Illustrator 29.5.0, SVG Export Plug-In . SVG Version: 2.1.0 Build 137)  -->
  <path d="M82.31,430.15h1.35l1.35-7.3,9.46-7.3c17.65-34.76,36.3-69.35,55.93-103.76,19.82-34.41,33.24-71.07,40.26-109.98l.54-2.16,18.37-1.89,28.37,10.81,24.32,24.32c17.83,17.83,36.38,35.31,55.66,52.42,22.16,19.46,45.49,37.2,69.99,53.23v2.43h1.89l14.59,12.97c26.12,10.63,52.29,20.09,78.5,28.37,26.21,8.29,52.56,18.64,79.04,31.07v21.08h-53.23c-49.72-1.08-93.27-16.44-130.65-46.07-37.38-29.63-73.63-61.2-108.76-94.71l-1.08-4.05h-2.7l-27.56-24.05-6.76-6.76h-3.78l-10.27,24.32-8.65,5.4-5.13,13.51c-14.59,20.36-27.83,41.66-39.72,63.91-11.89,22.25-27.66,43.19-47.29,62.82-8.47,2.53-16.26,6.44-23.37,11.75-7.12,5.31-14.28,10.31-21.48,15l-11.08,7.3,20.27-32.7h1.62ZM129.32,514.45h3.51v-1.62h6.49l20,23.78,32.97,16.48,1.62,5.67,9.19,5.4-14.05,7.03v4.32l-7.3,1.62-1.35,13.78,1.62,16.75-2.7,5.67h-5.4l-3.78,9.19h-10l-15.94-13.51c-7.57-14.05-11.62-28.91-12.16-44.59s-1.45-32.33-2.7-49.99ZM160.67,409.34c5.76,0,11.79-.63,18.1-1.89,6.3-1.26,12.79-3.69,19.46-7.3,13.15-6.85,26.66-12.61,40.53-17.29v-5.67l31.61-7.57c7.74,2.16,15.67,4.15,23.78,5.94,8.82,1.99,16.57,6.21,23.24,12.7l.54.54,1.89,6.49v.54c0,8.11-2.61,14.77-7.84,20-4.5,4.32-7.93,9.37-10.27,15.13l-5.67,14.05v-15.67c-3.24,3.24-6.49,5.94-9.73,8.11-3.96,2.7-8.74,4.05-14.32,4.05h-.27l-5.67-1.35-21.89,26.75v-8.65l-43.5,45.94,11.35-20.54c7.2-12.97,14.77-26.12,22.7-39.45,6.66-11.52,11.35-23.51,14.05-35.94-8.83,6.67-17.83,12.34-27.02,17.02-9.91,5.04-21.26,8.11-34.05,9.19l-34.32-14.86-3.24-10.81c4.86.36,8.38.54,10.54.54ZM267.94,327.74v.81l-13.24,19.19c-6.67,6.49-14.5,10.36-23.51,11.62-8.47,1.08-17.83,1.08-28.1,0l-15.67-6.21-2.7-11.62c10.09-1.8,18.55-3.78,25.4-5.94,6.85-2.16,12.97-5.85,18.37-11.08l1.89-4.59,18.91-4.59c1.98,1.26,3.78,2.07,5.4,2.43,1.62.36,3.06.64,4.32.81,2.88.36,5.09,1.31,6.62,2.84,1.53,1.53,2.3,3.65,2.3,6.35ZM211.47,541.47h.81c15.85,3.78,30.17,11.17,42.96,22.16,8.11,6.85,17.47,10.27,28.1,10.27,4.68,0,9.73-.72,15.13-2.16l37.02-6.49v-4.32l-6.21-23.24h6.49c5.58,3.96,10.44,7.84,14.59,11.62,2.7,2.16,5.76,3.24,9.19,3.24.9,0,1.98-.09,3.24-.27l15.67-2.16,26.75,13.78,1.89,6.21h3.51l3.51,14.59h-8.38v4.59c-39.45,12.61-81.6,20.09-126.46,22.43-15.31-3.78-28.28-11.62-38.91-23.51-10.27-11.17-21.53-21.62-33.78-31.34l-4.59-15.4h9.46ZM238.76,500.94v-4.05c.72-.9,1.26-1.53,1.62-1.89,5.04-5.04,11.17-7.57,18.37-7.57h21.08c7.2,1.45,14.77,3.34,22.7,5.67,8.65,2.53,15.49,7.12,20.54,13.78l3.51,4.86h-4.59v12.97l-9.19,3.78v4.32h-13.24c-9.55-7.39-19.73-12.52-30.53-15.4-10.81-2.88-20.54-8.11-29.18-15.67l-1.08-.81ZM392.78,493.92v-5.94l5.67-8.65-21.35-10-2.97-10.27,38.1-3.51,47.56,17.02v3.24l10,3.51,5.67,12.43h-4.86v4.86l-4.86,9.73h-11.08l-4.32,5.94c-5.58-1.8-10.31-3.74-14.19-5.81-3.88-2.07-7.53-4.55-10.94-7.43-5.94-4.86-12.61-7.3-20-7.3l-12.43,2.16Z" fill="#231815"/>
  <rect x="-88.65" y="484.81" width="83.85" height="0" fill="none"/>
</svg>