<?xml version="1.0" encoding="UTF-8"?>
<svg id="_圖層_1" data-name="圖層_1" xmlns="http://www.w3.org/2000/svg" version="1.1" viewBox="0 0 595.28 841.89">
  <!-- Generator: Adobe Illustrator 29.5.0, SVG Export Plug-In . SVG Version: 2.1.0 Build 137)  -->
  <path d="M496.99,399.78c-9.57-3.55-19.86-5.32-30.85-5.32s-21.63-.53-31.91-1.6l-8.78,1.6-38.56-1.6c-46.98,1.06-92.64,6.29-136.96,15.69-44.32,9.4-88.91,20.48-133.77,33.24l-4.52-1.33-1.6,1.86-30.32-12.23v-2.66l-16.75-3.19.53-5.32h-4.26l13.83-5.58c20.03-8.33,40.73-13.39,62.1-15.16,21.36-1.77,42.77-4.26,64.23-7.45v-.8h4.26l-1.33-1.33h4.26l-2.66-4.79h-4.52v-6.91h-2.13v-13.83h-2.66l-9.31-39.89-12.5-7.18v-6.12l6.65-1.6c-3.19-2.3-5.36-5.32-6.52-9.04-1.15-3.72-1.73-8.07-1.73-13.03v-2.93h6.91l11.17,6.65v2.66c5.67,1.6,10.46,4.35,14.36,8.24,1.95,1.95,4.26,2.93,6.91,2.93,1.77,0,3.9-.44,6.38-1.33l26.06-4.79v-3.72l-15.69-30.32h38.03l7.45,14.36h2.66v6.91l-1.06,5.32h4.26l8.78-4.52,1.33-4.79-7.98-27.39h6.12c4.79,2.13,9.84,3.55,15.16,4.26,7.45.89,12.5,4.08,15.16,9.57l.27.8v9.84h30.85v-5.85l-5.32-27.13,12.77-1.86v-3.99h28.46l8.78,6.91v6.91c-3.55,16.67-7.62,33.24-12.23,49.73l-14.63,51.33h-2.93v.8h-5.85l-3.72,10.9h17.02l20.74-3.72h70.74l6.91-1.6,54.25,3.99v6.65h5.32v5.32h18.62l-22.87,6.91-1.86,5.32h.8v7.45h-10.64l7.45,3.72h-23.14ZM182.37,537.54v4.26h-7.98v-5.05c-4.43-6.02-8.07-12.23-10.9-18.62-3.01-6.74-4.52-13.83-4.52-21.28,0-.17.53-7,1.6-20.48l-4.26-22.87h7.98l3.99,2.13h5.05l24.73,16.75,5.05,38.83-3.72,24.47-3.19-.8c-1.42-.53-2.79-.8-4.12-.8s-2.84.36-4.52,1.06c-1.68.71-3.41,1.51-5.19,2.39ZM176.52,243.94l-3.72-1.6v-3.46h-5.32v-5.58l3.72-29.79c.18-1.77.27-3.46.27-5.05,0-7.98-2.17-15.56-6.52-22.74-4.34-7.18-6.52-15.03-6.52-23.54,0-2.13.18-4.52.53-7.18l4.26-9.57h9.84l11.97,4.26v-.53h14.1l18.35,7.98,1.6,40.96-2.39,9.84,22.34,4.52c9.22-1.06,18.22-3.01,26.99-5.85,8.78-2.83,17.6-5.94,26.46-9.31v-5.32c5.67-1.6,10.68-2.66,15.03-3.19s8.16-.8,11.44-.8,6.03-.04,8.24-.13c2.22-.09,4.39-.22,6.52-.4,4.61-.35,9.93-.97,15.96-1.86l7.71,15.42-4.79,1.86v.27l5.32,3.72v5.58l-3.19,4.79,2.93,5.05c-16.49,6.56-32.67,10.73-48.54,12.5-15.87,1.77-31.69,3.9-47.47,6.38l-37.76-11.44v-3.99l-11.97-5.85c-.71,5.85-2.57,10.82-5.58,14.89-3.37,4.26-6.12,9.31-8.24,15.16l-.53,1.33-12.77,3.19-8.24,17.82v-18.35ZM225.46,330.64l-15.96,57.98h1.06l36.7-8.51,5.05-21.54-5.05-31.12h-11.44l-10.37,3.19ZM212.69,458.82h13.56l42.29,33.24,1.6,34.84-28.19,12.23c-4.26-4.61-7.62-8.95-10.11-13.03-5.14-7.8-8.69-16.22-10.64-25.26-2.84-12.94-5.67-26.95-8.51-42.02ZM297,341.81h-2.39l-3.72-19.41-9.84-1.86-7.45,1.6-9.84,55.85h1.6l24.47-5.05,6.38-13.03v6.38l1.33-24.47h-.53ZM303.91,465.74h.53l46.01,20.48,6.38,18.62-8.51,6.38-4.79,4.79-6.12-1.33-4.26,7.71-2.66-1.86c-7.45-4.79-14.14-11.04-20.08-18.75-5.94-7.71-11.83-15.29-17.69-22.74l-3.19-13.3h14.36ZM339.28,360.42h2.66l2.66-17.02h-1.06v-8.24l1.33-21.54h-1.86l-27.39,4.79c-1.06,10.11-2.75,19.59-5.05,28.46-2.3,8.16-3.99,16.75-5.05,25.8h.27l29.79-5.05,3.72-7.18ZM411.62,488.34c0-5.32-1.95-9.93-5.85-13.83-2.84-2.48-4.52-4.08-5.05-4.79-4.61-4.43-7.8-9.66-9.57-15.69l-1.33-3.72h15.42c9.4,4.61,18.84,7.85,28.32,9.71,9.49,1.86,18.66,6.69,27.53,14.49l1.33,3.46h3.46l.8,1.6c2.3,4.79,5.05,8.78,8.24,11.97,3.9,4.26,5.85,9.57,5.85,15.96v2.93h-5.32v7.98l-5.85,2.93-13.3-3.19v4.52h-5.58l-39.09-32.98v-1.33Z" fill="#231815"/>
</svg>