<?xml version="1.0" encoding="UTF-8"?>
<svg id="_圖層_1" data-name="圖層_1" xmlns="http://www.w3.org/2000/svg" version="1.1" viewBox="0 0 595.28 841.89">
  <!-- Generator: Adobe Illustrator 29.5.0, SVG Export Plug-In . SVG Version: 2.1.0 Build 137)  -->
  <path d="M78.43,561.14v-2.87l-9.18-2.29-4.3-21.8c-1.15-6.5-4.02-12.23-8.61-17.21l-4.88-5.16h6.6l12.91-43.32v-86.06l2.01-36.43h6.02l.86.86c6.69,6.88,11.66,14.49,14.92,22.81,3.25,8.32,6.12,16.49,8.61,24.53h8.32c2.68,0,4.88.86,6.6,2.58,1.33,1.34,2.29,2.97,2.87,4.88,5.16,8.61,7.75,17.89,7.75,27.83v27.54l-1.72,25.24,4.3,34.71-23.81,9.75v22.66l2.87,6.88-12.62,14.92-19.51-10.04ZM168.22,398.2h.57c12.23,4.4,22.38,9.28,30.41,14.63,4.59,3.26,9.28,7.27,14.06,12.05,6.5,15.3,15.39,28.21,26.68,38.73,11.09,10.71,24.28,19.79,39.59,27.25,7.27,2.49,15.2,3.73,23.81,3.73h26.39l36.72-7.17c4.97-10.51,7.46-19.41,7.46-26.68,0-5.35-1.15-11.86-3.44-19.51-1.34-4.02-2.97-7.93-4.88-11.76-3.83-7.65-6.99-16.16-9.47-25.53l-.86-4.02h7.46l14.34,19.51,5.16,13.77h8.03l7.46,20.65h3.44l6.02,8.61c4.97,2.29,10.51,3.73,16.64,4.3,7.46.57,14.06,2.97,19.79,7.17l1.43.86v.29h6.6l2.87,9.18,7.75,6.31v12.05l-7.17,11.19c-27.73,2.87-55.47,5.93-83.19,9.18-20.65,2.49-41.7,3.73-63.11,3.73-7.65,0-15.4-.19-23.24-.57-13.58-2.87-26.15-7.17-37.72-12.91-11.58-5.74-23.28-12.05-35.14-18.93-22.38-30.41-40.07-61-53.07-91.8l-2.01-4.3h10.61ZM241.95,335.95c0-5.92-1.43-10.94-4.3-15.06-2.87-4.11-7.17-10.18-12.91-18.22l16.93-2.58c14.73,2.68,28.59,6.93,41.6,12.77,13,5.84,26,12.1,39.01,18.79l10.33,14.06,9.18,12.91h-8.32l-2.01-.86v6.6h-8.03l-11.19,5.45-9.47,4.02-60.82-36.15v-1.72ZM437.02,341.11v-10.04l4.88-8.32c-4.78-4.59-9.47-9.47-14.06-14.63-5.16-5.74-8.51-11.95-10.04-18.65l-4.88-3.44-14.06-12.91h12.05c20.08,0,38.2,4.88,54.36,14.63,16.16,9.75,32.56,20.08,49.2,30.98v2.58h3.44v2.58l7.75,2.01,1.72,13.48,9.47,4.02,3.44,11.19h-14.92v-8.03h-3.44v5.74h-7.46v5.74l-3.73,6.31h-4.02l-26.1-10.04-14.06-8.61-1.72-2.29c-1.91-1.91-4.59-3.06-8.03-3.44-4.78-.57-9.08-1.33-12.91-2.29l-6.88,3.44ZM510.46,348.28h3.44v-3.44h-3.44v3.44Z" fill="#231815"/>
</svg>