<?xml version="1.0" encoding="UTF-8"?>
<svg id="_圖層_1" data-name="圖層_1" xmlns="http://www.w3.org/2000/svg" version="1.1" viewBox="0 0 595.28 841.89">
  <!-- Generator: Adobe Illustrator 29.5.0, SVG Export Plug-In . SVG Version: 2.1.0 Build 137)  -->
  <path d="M355.33,486.93c-2.4-1.44-3.6-3.51-3.6-6.24,0-.48.08-1.2.24-2.16.32-2.4.48-4.47.48-6.24v-.24l1.2-5.76.24-1.2h-2.88v-8.88l6.96-70.29-12.71,12.71c-1.92,20.47-4.72,40.94-8.4,61.41,6.56,8.8,10.63,19.99,12.23,33.58l.24,2.88h-3.12l-1.44,5.52-17.27,2.88c-4.48,14.24-9.72,28.43-15.72,42.58-6,14.15-14.19,27.71-24.58,40.66h-9.6v-.96l-11.75,5.52-10.32-4.8c3.84-2.88,6.32-4.8,7.44-5.76,1.12-.96,2.12-1.88,3-2.76s1.8-1.88,2.76-3c.96-1.12,1.84-2.31,2.64-3.6,1.76-2.4,3.27-4.88,4.56-7.44,4.16-8,8.16-15.83,12-23.51,2.56-9.27,5.28-18.55,8.16-27.83,2.88-9.27,4.4-18.71,4.56-28.31l-3.84-1.2-12.71-17.51-16.08-13.67v-8.16h7.2l-2.88-4.32h13.92l21.59,5.04,3.6-28.55h-1.92l-15.11,11.27-20.63,6.96v-6.72l.72-3.6-.96-2.16-5.52,7.68h.48v6.48l-8.64,1.2-19.19,10.32-21.11,10.79v8.4c3.51-1.76,7.59-3.12,12.23-4.08,2.55-.48,5.12-.72,7.68-.72,5.12.48,7.83.8,8.16.96,1.76,1.12,3.68,1.68,5.76,1.68.96,0,2-.12,3.12-.36,1.12-.24,2.16-.36,3.12-.36,3.99,0,6.87,2.08,8.64,6.24l.24.48v7.44l-16.07,15.35-29.99,12.47c0,15.2-.72,29.75-2.16,43.66-1.44,13.91-2.64,27.83-3.6,41.74l3.36,12.47-5.28,1.92-3.12,9.12h-7.68l-.48-1.68c-1.92-4.8-4.72-9.27-8.4-13.43-3.68-4.16-5.52-8.96-5.52-14.39,0-.8.08-2,.24-3.6l.72-.48c2.72-3.03,4.08-7.04,4.08-11.99s.48-9.84,1.44-14.63l-4.08-30.47-33.82,19.19v-3.36h-.24l-10.08,4.08-6.96-16.31-23.99-11.75,22.07-4.08,6.48-12.47,17.27-7.92,11.99,1.44,8.64-1.2,1.2-11.99-1.2-10.32h-7.44l-11.75,1.44-15.83-7.68-5.52-8.4,4.08-.72c13.27-1.92,25.91-5.28,37.9-10.08,11.83-4.8,23.18-10.32,34.06-16.55,2.55-5.28,4.52-11.11,5.88-17.51,1.36-6.39,2.04-12.79,2.04-19.19l-1.2-8.4-9.6-.72-45.82,17.51v.72l5.04,10.08,5.04,1.68v12.23l-2.16,9.6-5.04,5.52v4.56h-8.16c-7.52-7.52-12.47-14.71-14.87-21.59-1.28-3.68-2.08-7.52-2.4-11.51h-.24c-4.96,3.84-10.55,6.48-16.79,7.92s-12.8,2.16-19.67,2.16h-1.2l-11.27-12.23-13.67-2.64v-5.76c16.31-7.04,28.7-13.51,37.18-19.43,3.68-2.72,7.28-5.67,10.79-8.88l1.92-3.84,31.66-1.92,8.16,1.92,15.35-6.48,1.68-33.1h-2.88c-1.12,0-2.48-.08-4.08-.24-3.84-.32-7.36-1.36-10.55-3.12-4.96-2.88-10.24-5.04-15.83-6.48l-1.92-.72v-7.44l39.82-9.6v-23.75l-2.88-8.88,1.44-7.2-1.44-11.75,2.88-17.03-2.4-7.2h9.12c8.16,8.96,16.39,14.24,24.71,15.83l1.44.24.48,1.44c2.72,5.92,4.32,12.35,4.8,19.31.48,6.96.72,13.95.72,20.99v.24l-.72,2.4h2.16l4.32-.96,10.08.96,4.8-.96c3.99,1.6,6.6,2.96,7.8,4.08,1.2,1.12,1.8,2.64,1.8,4.56h4.32l-10.08,17.27-31.9,8.64c-1.28,11.03-4.32,21.91-9.12,32.62l13.67-3.36,2.4-8.64,22.07-5.04.96.48c3.84,1.92,7.83,2.88,11.99,2.88,1.6,0,3.27-.16,5.04-.48,1.76-.32,3.51-.48,5.28-.48,5.28,0,10.16,1.12,14.64,3.36l1.44.72v10.79l-1.92,4.8-15.12,8.88.72-1.2h-3.84l1.68,1.68h-2.16l-1.92.48v2.4h-5.04l-5.28,3.12-1.68-1.68-.96.24v2.4l-8.88.72,9.36,3.36c2.55,3.84,3.84,7.92,3.84,12.23v11.99l-4.32,11.03,11.51-1.68v1.44l6.72-10.79c4.47-.8,7.79-1.56,9.95-2.28,2.16-.72,3.73-1.24,4.69-1.56,6.56-2.72,13.75-7.52,21.59-14.39,3.36-21.59,5.04-43.9,5.04-66.93s2.4-46.14,7.2-67.41l.48-2.16h4.32l9.84,6.48,5.28,6.72,13.43,1.44,1.68,17.51c-2.88,12.32-4.72,25.15-5.52,38.5-.8,13.35-2.48,26.43-5.04,39.22h.48l3.12-6.96,15.11-6.96,5.28-6.72h6.24c2.56,1.6,4.96,2.72,7.2,3.36,2.24.64,4.64.96,7.2.96,6.56,0,11.99,2.88,16.31,8.64l.48.72,1.68,13.43-10.79,9.84-6.72,3.84c-6.24,17.6-11.19,36.07-14.87,55.41-3.36,16.79-5.04,34.06-5.04,51.82,0,2.24.08,4.4.24,6.48h1.92v6l-1.68,3.84,5.52,14.15c6.72,4.48,14.39,6.72,23.03,6.72h27.83l18.23-3.84,1.2-3.84h2.88l2.4-31.66h2.64v-15.83l8.88,17.75,4.32,1.44,2.64,5.04v-13.91l8.4,18.95.72.24,1.2-3.6h6v2.88h4.32v2.16l4.32,1.44v3.84l5.28,6.96h3.36v23.51l-8.64,1.92v2.4c-30.71,7.36-57.25,11.43-79.64,12.23-3.52.16-7.6.24-12.23.24s-9.92-.16-15.83-.48c-6.08-2.08-11.75-4.11-17.03-6.12-5.28-2-10.63-5.64-16.07-10.91l-1.2-4.56h-2.88l-6.72-38.38h4.8v-2.88Z" fill="#231815"/>
</svg>